<?xml version="1.0" encoding="UTF-8" standalone="no"?>
<!DOCTYPE svg PUBLIC "-//W3C//DTD SVG 1.1//EN"
 "http://www.w3.org/Graphics/SVG/1.1/DTD/svg11.dtd">
<!-- Generated by graphviz version 2.38.0 (20140413.2041)
 -->
<!-- Title: snakemake_dag Pages: 1 -->
<svg width="344pt" height="836pt"
 viewBox="0.00 0.00 343.74 836.00" xmlns="http://www.w3.org/2000/svg" xmlns:xlink="http://www.w3.org/1999/xlink">
<g id="graph0" class="graph" transform="scale(1 1) rotate(0) translate(4 832)">
<title>snakemake_dag</title>
<polygon fill="white" stroke="none" points="-4,4 -4,-832 339.741,-832 339.741,4 -4,4"/>
<!-- 0 -->
<g id="node1" class="node"><title>0</title>
<path fill="none" stroke="#56b9d8" stroke-width="2" d="M171,-36C171,-36 141,-36 141,-36 135,-36 129,-30 129,-24 129,-24 129,-12 129,-12 129,-6 135,-0 141,-0 141,-0 171,-0 171,-0 177,-0 183,-6 183,-12 183,-12 183,-24 183,-24 183,-30 177,-36 171,-36"/>
<text text-anchor="middle" x="156" y="-15" font-family="sans" font-size="10.00">all</text>
</g>
<!-- 1 -->
<g id="node2" class="node"><title>1</title>
<path fill="none" stroke="#d8b456" stroke-width="2" d="M99,-252C99,-252 69,-252 69,-252 63,-252 57,-246 57,-240 57,-240 57,-228 57,-228 57,-222 63,-216 69,-216 69,-216 99,-216 99,-216 105,-216 111,-222 111,-228 111,-228 111,-240 111,-240 111,-246 105,-252 99,-252"/>
<text text-anchor="middle" x="84" y="-231" font-family="sans" font-size="10.00">multiqc</text>
</g>
<!-- 1&#45;&gt;0 -->
<g id="edge1" class="edge"><title>1&#45;&gt;0</title>
<path fill="none" stroke="grey" stroke-width="2" d="M89.7704,-215.849C102.278,-178.675 131.965,-90.4388 146.976,-45.8204"/>
<polygon fill="grey" stroke="grey" stroke-width="2" points="150.331,-46.8265 150.202,-36.2325 143.696,-44.5943 150.331,-46.8265"/>
</g>
<!-- 2 -->
<g id="node3" class="node"><title>2</title>
<path fill="none" stroke="#d87556" stroke-width="2" d="M233.375,-108C233.375,-108 162.625,-108 162.625,-108 156.625,-108 150.625,-102 150.625,-96 150.625,-96 150.625,-84 150.625,-84 150.625,-78 156.625,-72 162.625,-72 162.625,-72 233.375,-72 233.375,-72 239.375,-72 245.375,-78 245.375,-84 245.375,-84 245.375,-96 245.375,-96 245.375,-102 239.375,-108 233.375,-108"/>
<text text-anchor="middle" x="198" y="-87" font-family="sans" font-size="10.00">normalize_counts</text>
</g>
<!-- 2&#45;&gt;0 -->
<g id="edge2" class="edge"><title>2&#45;&gt;0</title>
<path fill="none" stroke="grey" stroke-width="2" d="M187.618,-71.6966C182.735,-63.5589 176.813,-53.689 171.421,-44.7013"/>
<polygon fill="grey" stroke="grey" stroke-width="2" points="174.409,-42.8785 166.263,-36.1043 168.406,-46.48 174.409,-42.8785"/>
</g>
<!-- 3 -->
<g id="node4" class="node"><title>3</title>
<path fill="none" stroke="#56d89a" stroke-width="2" d="M70,-612C70,-612 40,-612 40,-612 34,-612 28,-606 28,-600 28,-600 28,-588 28,-588 28,-582 34,-576 40,-576 40,-576 70,-576 70,-576 76,-576 82,-582 82,-588 82,-588 82,-600 82,-600 82,-606 76,-612 70,-612"/>
<text text-anchor="middle" x="55" y="-591" font-family="sans" font-size="10.00">fastqc</text>
</g>
<!-- 3&#45;&gt;1 -->
<g id="edge3" class="edge"><title>3&#45;&gt;1</title>
<path fill="none" stroke="grey" stroke-width="2" d="M53.2219,-575.973C50.599,-549.343 46,-496.205 46,-451 46,-451 46,-451 46,-377 46,-335.633 61.2348,-289.722 72.4117,-261.605"/>
<polygon fill="grey" stroke="grey" stroke-width="2" points="75.7564,-262.673 76.3101,-252.093 69.2793,-260.019 75.7564,-262.673"/>
</g>
<!-- 4 -->
<g id="node5" class="node"><title>4</title>
<path fill="none" stroke="#78d856" stroke-width="2" d="M89.3655,-756C89.3655,-756 58.6345,-756 58.6345,-756 52.6345,-756 46.6345,-750 46.6345,-744 46.6345,-744 46.6345,-732 46.6345,-732 46.6345,-726 52.6345,-720 58.6345,-720 58.6345,-720 89.3655,-720 89.3655,-720 95.3655,-720 101.365,-726 101.365,-732 101.365,-732 101.365,-744 101.365,-744 101.365,-750 95.3655,-756 89.3655,-756"/>
<text text-anchor="middle" x="74" y="-735" font-family="sans" font-size="10.00">cutadapt</text>
</g>
<!-- 4&#45;&gt;1 -->
<g id="edge5" class="edge"><title>4&#45;&gt;1</title>
<path fill="none" stroke="grey" stroke-width="2" d="M57.9431,-719.694C36.1791,-694.359 0,-644.761 0,-595 0,-595 0,-595 0,-377 0,-330.596 33.6412,-286.055 58.3444,-259.604"/>
<polygon fill="grey" stroke="grey" stroke-width="2" points="60.9462,-261.948 65.3577,-252.315 55.902,-257.094 60.9462,-261.948"/>
</g>
<!-- 4&#45;&gt;3 -->
<g id="edge8" class="edge"><title>4&#45;&gt;3</title>
<path fill="none" stroke="grey" stroke-width="2" d="M70.8363,-719.852C68.9881,-709.494 66.6937,-696.014 65,-684 62.0882,-663.345 59.482,-639.896 57.6607,-622.255"/>
<polygon fill="grey" stroke="grey" stroke-width="2" points="61.122,-621.695 56.6325,-612.098 54.1576,-622.4 61.122,-621.695"/>
</g>
<!-- 14 -->
<g id="node15" class="node"><title>14</title>
<path fill="none" stroke="#d85656" stroke-width="2" d="M119.633,-684C119.633,-684 86.367,-684 86.367,-684 80.367,-684 74.367,-678 74.367,-672 74.367,-672 74.367,-660 74.367,-660 74.367,-654 80.367,-648 86.367,-648 86.367,-648 119.633,-648 119.633,-648 125.633,-648 131.633,-654 131.633,-660 131.633,-660 131.633,-672 131.633,-672 131.633,-678 125.633,-684 119.633,-684"/>
<text text-anchor="middle" x="103" y="-663" font-family="sans" font-size="10.00">star_host</text>
</g>
<!-- 4&#45;&gt;14 -->
<g id="edge20" class="edge"><title>4&#45;&gt;14</title>
<path fill="none" stroke="grey" stroke-width="2" d="M81.1685,-719.697C84.4345,-711.813 88.374,-702.304 92.0022,-693.546"/>
<polygon fill="grey" stroke="grey" stroke-width="2" points="95.32,-694.683 95.9139,-684.104 88.853,-692.003 95.32,-694.683"/>
</g>
<!-- 15 -->
<g id="node16" class="node"><title>15</title>
<path fill="none" stroke="#d89556" stroke-width="2" d="M196.242,-684C196.242,-684 161.758,-684 161.758,-684 155.758,-684 149.758,-678 149.758,-672 149.758,-672 149.758,-660 149.758,-660 149.758,-654 155.758,-648 161.758,-648 161.758,-648 196.242,-648 196.242,-648 202.242,-648 208.242,-654 208.242,-660 208.242,-660 208.242,-672 208.242,-672 208.242,-678 202.242,-684 196.242,-684"/>
<text text-anchor="middle" x="179" y="-663" font-family="sans" font-size="10.00">star_graft</text>
</g>
<!-- 4&#45;&gt;15 -->
<g id="edge21" class="edge"><title>4&#45;&gt;15</title>
<path fill="none" stroke="grey" stroke-width="2" d="M99.6859,-719.876C113.288,-710.808 130.172,-699.552 144.861,-689.759"/>
<polygon fill="grey" stroke="grey" stroke-width="2" points="146.836,-692.649 153.215,-684.19 142.953,-686.825 146.836,-692.649"/>
</g>
<!-- 5 -->
<g id="node6" class="node"><title>5</title>
<path fill="none" stroke="#56d8b9" stroke-width="2" d="M186.984,-468C186.984,-468 135.016,-468 135.016,-468 129.016,-468 123.016,-462 123.016,-456 123.016,-456 123.016,-444 123.016,-444 123.016,-438 129.016,-432 135.016,-432 135.016,-432 186.984,-432 186.984,-432 192.984,-432 198.984,-438 198.984,-444 198.984,-444 198.984,-456 198.984,-456 198.984,-462 192.984,-468 186.984,-468"/>
<text text-anchor="middle" x="161" y="-447" font-family="sans" font-size="10.00">disambiguate</text>
</g>
<!-- 5&#45;&gt;1 -->
<g id="edge4" class="edge"><title>5&#45;&gt;1</title>
<path fill="none" stroke="grey" stroke-width="2" d="M139.169,-431.861C128.674,-422.42 116.903,-409.823 110,-396 88.5209,-352.987 84.0968,-296.2 83.5527,-262.837"/>
<polygon fill="grey" stroke="grey" stroke-width="2" points="87.0508,-262.455 83.4979,-252.474 80.0509,-262.492 87.0508,-262.455"/>
</g>
<!-- 10 -->
<g id="node11" class="node"><title>10</title>
<path fill="none" stroke="#56d87b" stroke-width="2" d="M194.7,-396C194.7,-396 131.3,-396 131.3,-396 125.3,-396 119.3,-390 119.3,-384 119.3,-384 119.3,-372 119.3,-372 119.3,-366 125.3,-360 131.3,-360 131.3,-360 194.7,-360 194.7,-360 200.7,-360 206.7,-366 206.7,-372 206.7,-372 206.7,-384 206.7,-384 206.7,-390 200.7,-396 194.7,-396"/>
<text text-anchor="middle" x="163" y="-375" font-family="sans" font-size="10.00">sambamba_sort</text>
</g>
<!-- 5&#45;&gt;10 -->
<g id="edge14" class="edge"><title>5&#45;&gt;10</title>
<path fill="none" stroke="grey" stroke-width="2" d="M161.494,-431.697C161.715,-423.983 161.98,-414.712 162.225,-406.112"/>
<polygon fill="grey" stroke="grey" stroke-width="2" points="165.724,-406.2 162.511,-396.104 158.727,-406 165.724,-406.2"/>
</g>
<!-- 6 -->
<g id="node7" class="node"><title>6</title>
<path fill="none" stroke="#56d8d8" stroke-width="2" d="M182.195,-324C182.195,-324 123.805,-324 123.805,-324 117.805,-324 111.805,-318 111.805,-312 111.805,-312 111.805,-300 111.805,-300 111.805,-294 117.805,-288 123.805,-288 123.805,-288 182.195,-288 182.195,-288 188.195,-288 194.195,-294 194.195,-300 194.195,-300 194.195,-312 194.195,-312 194.195,-318 188.195,-324 182.195,-324"/>
<text text-anchor="middle" x="153" y="-303" font-family="sans" font-size="10.00">samtools_stats</text>
</g>
<!-- 6&#45;&gt;1 -->
<g id="edge6" class="edge"><title>6&#45;&gt;1</title>
<path fill="none" stroke="grey" stroke-width="2" d="M135.944,-287.697C127.505,-279.135 117.175,-268.656 107.957,-259.304"/>
<polygon fill="grey" stroke="grey" stroke-width="2" points="110.373,-256.769 100.86,-252.104 105.387,-261.683 110.373,-256.769"/>
</g>
<!-- 7 -->
<g id="node8" class="node"><title>7</title>
<path fill="none" stroke="#59d856" stroke-width="2" d="M241.87,-180C241.87,-180 186.13,-180 186.13,-180 180.13,-180 174.13,-174 174.13,-168 174.13,-168 174.13,-156 174.13,-156 174.13,-150 180.13,-144 186.13,-144 186.13,-144 241.87,-144 241.87,-144 247.87,-144 253.87,-150 253.87,-156 253.87,-156 253.87,-168 253.87,-168 253.87,-174 247.87,-180 241.87,-180"/>
<text text-anchor="middle" x="214" y="-159" font-family="sans" font-size="10.00">merge_counts</text>
</g>
<!-- 7&#45;&gt;2 -->
<g id="edge7" class="edge"><title>7&#45;&gt;2</title>
<path fill="none" stroke="grey" stroke-width="2" d="M210.045,-143.697C208.282,-135.983 206.163,-126.712 204.197,-118.112"/>
<polygon fill="grey" stroke="grey" stroke-width="2" points="207.55,-117.073 201.91,-108.104 200.726,-118.633 207.55,-117.073"/>
</g>
<!-- 8 -->
<g id="node9" class="node"><title>8</title>
<path fill="none" stroke="#569ad8" stroke-width="2" d="M94.3702,-828C94.3702,-828 53.6298,-828 53.6298,-828 47.6298,-828 41.6298,-822 41.6298,-816 41.6298,-816 41.6298,-804 41.6298,-804 41.6298,-798 47.6298,-792 53.6298,-792 53.6298,-792 94.3702,-792 94.3702,-792 100.37,-792 106.37,-798 106.37,-804 106.37,-804 106.37,-816 106.37,-816 106.37,-822 100.37,-828 94.3702,-828"/>
<text text-anchor="middle" x="74" y="-807" font-family="sans" font-size="10.00">copy_input</text>
</g>
<!-- 8&#45;&gt;4 -->
<g id="edge9" class="edge"><title>8&#45;&gt;4</title>
<path fill="none" stroke="grey" stroke-width="2" d="M74,-791.697C74,-783.983 74,-774.712 74,-766.112"/>
<polygon fill="grey" stroke="grey" stroke-width="2" points="77.5001,-766.104 74,-756.104 70.5001,-766.104 77.5001,-766.104"/>
</g>
<!-- 9 -->
<g id="node10" class="node"><title>9</title>
<path fill="none" stroke="#97d856" stroke-width="2" d="M193.921,-540C193.921,-540 128.079,-540 128.079,-540 122.079,-540 116.079,-534 116.079,-528 116.079,-528 116.079,-516 116.079,-516 116.079,-510 122.079,-504 128.079,-504 128.079,-504 193.921,-504 193.921,-504 199.921,-504 205.921,-510 205.921,-516 205.921,-516 205.921,-528 205.921,-528 205.921,-534 199.921,-540 193.921,-540"/>
<text text-anchor="middle" x="161" y="-519" font-family="sans" font-size="10.00">samtools_merge</text>
</g>
<!-- 9&#45;&gt;5 -->
<g id="edge10" class="edge"><title>9&#45;&gt;5</title>
<path fill="none" stroke="grey" stroke-width="2" d="M161,-503.697C161,-495.983 161,-486.712 161,-478.112"/>
<polygon fill="grey" stroke="grey" stroke-width="2" points="164.5,-478.104 161,-468.104 157.5,-478.104 164.5,-478.104"/>
</g>
<!-- 10&#45;&gt;6 -->
<g id="edge11" class="edge"><title>10&#45;&gt;6</title>
<path fill="none" stroke="grey" stroke-width="2" d="M160.528,-359.697C159.426,-351.983 158.102,-342.712 156.873,-334.112"/>
<polygon fill="grey" stroke="grey" stroke-width="2" points="160.323,-333.509 155.443,-324.104 153.393,-334.499 160.323,-333.509"/>
</g>
<!-- 11 -->
<g id="node12" class="node"><title>11</title>
<path fill="none" stroke="#567bd8" stroke-width="2" d="M251.157,-252C251.157,-252 192.843,-252 192.843,-252 186.843,-252 180.843,-246 180.843,-240 180.843,-240 180.843,-228 180.843,-228 180.843,-222 186.843,-216 192.843,-216 192.843,-216 251.157,-216 251.157,-216 257.157,-216 263.157,-222 263.157,-228 263.157,-228 263.157,-240 263.157,-240 263.157,-246 257.157,-252 251.157,-252"/>
<text text-anchor="middle" x="222" y="-231" font-family="sans" font-size="10.00">feature_counts</text>
</g>
<!-- 10&#45;&gt;11 -->
<g id="edge15" class="edge"><title>10&#45;&gt;11</title>
<path fill="none" stroke="grey" stroke-width="2" d="M179.201,-359.629C187.491,-349.844 197.062,-337.003 203,-324 211.998,-304.297 216.808,-280.173 219.335,-262.014"/>
<polygon fill="grey" stroke="grey" stroke-width="2" points="222.808,-262.446 220.573,-252.09 215.862,-261.579 222.808,-262.446"/>
</g>
<!-- 13 -->
<g id="node14" class="node"><title>13</title>
<path fill="none" stroke="#d6d856" stroke-width="2" d="M323.984,-324C323.984,-324 262.016,-324 262.016,-324 256.016,-324 250.016,-318 250.016,-312 250.016,-312 250.016,-300 250.016,-300 250.016,-294 256.016,-288 262.016,-288 262.016,-288 323.984,-288 323.984,-288 329.984,-288 335.984,-294 335.984,-300 335.984,-300 335.984,-312 335.984,-312 335.984,-318 329.984,-324 323.984,-324"/>
<text text-anchor="middle" x="293" y="-303" font-family="sans" font-size="10.00">samtools_index</text>
</g>
<!-- 10&#45;&gt;13 -->
<g id="edge19" class="edge"><title>10&#45;&gt;13</title>
<path fill="none" stroke="grey" stroke-width="2" d="M194.802,-359.876C212.114,-350.554 233.721,-338.919 252.256,-328.939"/>
<polygon fill="grey" stroke="grey" stroke-width="2" points="253.931,-332.012 261.076,-324.19 250.612,-325.849 253.931,-332.012"/>
</g>
<!-- 11&#45;&gt;7 -->
<g id="edge12" class="edge"><title>11&#45;&gt;7</title>
<path fill="none" stroke="grey" stroke-width="2" d="M220.022,-215.697C219.141,-207.983 218.081,-198.712 217.099,-190.112"/>
<polygon fill="grey" stroke="grey" stroke-width="2" points="220.568,-189.642 215.955,-180.104 213.613,-190.437 220.568,-189.642"/>
</g>
<!-- 12 -->
<g id="node13" class="node"><title>12</title>
<path fill="none" stroke="#b6d856" stroke-width="2" d="M206.384,-612C206.384,-612 115.616,-612 115.616,-612 109.616,-612 103.616,-606 103.616,-600 103.616,-600 103.616,-588 103.616,-588 103.616,-582 109.616,-576 115.616,-576 115.616,-576 206.384,-576 206.384,-576 212.384,-576 218.384,-582 218.384,-588 218.384,-588 218.384,-600 218.384,-600 218.384,-606 212.384,-612 206.384,-612"/>
<text text-anchor="middle" x="161" y="-591" font-family="sans" font-size="10.00">samtools_sort_qname</text>
</g>
<!-- 12&#45;&gt;9 -->
<g id="edge13" class="edge"><title>12&#45;&gt;9</title>
<path fill="none" stroke="grey" stroke-width="2" d="M161,-575.697C161,-567.983 161,-558.712 161,-550.112"/>
<polygon fill="grey" stroke="grey" stroke-width="2" points="164.5,-550.104 161,-540.104 157.5,-550.104 164.5,-550.104"/>
</g>
<!-- 13&#45;&gt;11 -->
<g id="edge16" class="edge"><title>13&#45;&gt;11</title>
<path fill="none" stroke="grey" stroke-width="2" d="M275.449,-287.697C266.766,-279.135 256.137,-268.656 246.652,-259.304"/>
<polygon fill="grey" stroke="grey" stroke-width="2" points="248.927,-256.633 239.349,-252.104 244.012,-261.617 248.927,-256.633"/>
</g>
<!-- 14&#45;&gt;12 -->
<g id="edge17" class="edge"><title>14&#45;&gt;12</title>
<path fill="none" stroke="grey" stroke-width="2" d="M117.337,-647.697C124.291,-639.305 132.77,-629.07 140.401,-619.861"/>
<polygon fill="grey" stroke="grey" stroke-width="2" points="143.143,-622.038 146.828,-612.104 137.753,-617.571 143.143,-622.038"/>
</g>
<!-- 15&#45;&gt;12 -->
<g id="edge18" class="edge"><title>15&#45;&gt;12</title>
<path fill="none" stroke="grey" stroke-width="2" d="M174.551,-647.697C172.545,-639.898 170.131,-630.509 167.899,-621.829"/>
<polygon fill="grey" stroke="grey" stroke-width="2" points="171.278,-620.918 165.398,-612.104 164.499,-622.661 171.278,-620.918"/>
</g>
</g>
</svg>
