<?xml version="1.0" encoding="UTF-8" standalone="no"?>
<!DOCTYPE svg PUBLIC "-//W3C//DTD SVG 1.1//EN"
 "http://www.w3.org/Graphics/SVG/1.1/DTD/svg11.dtd">
<!-- Generated by graphviz version 2.38.0 (20140413.2041)
 -->
<!-- Title: snakemake_dag Pages: 1 -->
<svg width="298pt" height="692pt"
 viewBox="0.00 0.00 297.74 692.00" xmlns="http://www.w3.org/2000/svg" xmlns:xlink="http://www.w3.org/1999/xlink">
<g id="graph0" class="graph" transform="scale(1 1) rotate(0) translate(4 688)">
<title>snakemake_dag</title>
<polygon fill="white" stroke="none" points="-4,4 -4,-688 293.741,-688 293.741,4 -4,4"/>
<!-- 0 -->
<g id="node1" class="node"><title>0</title>
<path fill="none" stroke="#d87d56" stroke-width="2" d="M129,-36C129,-36 99,-36 99,-36 93,-36 87,-30 87,-24 87,-24 87,-12 87,-12 87,-6 93,-0 99,-0 99,-0 129,-0 129,-0 135,-0 141,-6 141,-12 141,-12 141,-24 141,-24 141,-30 135,-36 129,-36"/>
<text text-anchor="middle" x="114" y="-15" font-family="sans" font-size="10.00">all</text>
</g>
<!-- 1 -->
<g id="node2" class="node"><title>1</title>
<path fill="none" stroke="#d8a456" stroke-width="2" d="M191.375,-108C191.375,-108 120.625,-108 120.625,-108 114.625,-108 108.625,-102 108.625,-96 108.625,-96 108.625,-84 108.625,-84 108.625,-78 114.625,-72 120.625,-72 120.625,-72 191.375,-72 191.375,-72 197.375,-72 203.375,-78 203.375,-84 203.375,-84 203.375,-96 203.375,-96 203.375,-102 197.375,-108 191.375,-108"/>
<text text-anchor="middle" x="156" y="-87" font-family="sans" font-size="10.00">normalize_counts</text>
</g>
<!-- 1&#45;&gt;0 -->
<g id="edge2" class="edge"><title>1&#45;&gt;0</title>
<path fill="none" stroke="grey" stroke-width="2" d="M145.618,-71.6966C140.735,-63.5589 134.813,-53.689 129.421,-44.7013"/>
<polygon fill="grey" stroke="grey" stroke-width="2" points="132.409,-42.8785 124.263,-36.1043 126.406,-46.48 132.409,-42.8785"/>
</g>
<!-- 2 -->
<g id="node3" class="node"><title>2</title>
<path fill="none" stroke="#8fd856" stroke-width="2" d="M57,-252C57,-252 27,-252 27,-252 21,-252 15,-246 15,-240 15,-240 15,-228 15,-228 15,-222 21,-216 27,-216 27,-216 57,-216 57,-216 63,-216 69,-222 69,-228 69,-228 69,-240 69,-240 69,-246 63,-252 57,-252"/>
<text text-anchor="middle" x="42" y="-231" font-family="sans" font-size="10.00">multiqc</text>
</g>
<!-- 2&#45;&gt;0 -->
<g id="edge1" class="edge"><title>2&#45;&gt;0</title>
<path fill="none" stroke="grey" stroke-width="2" d="M47.7704,-215.849C60.2775,-178.675 89.9645,-90.4388 104.976,-45.8204"/>
<polygon fill="grey" stroke="grey" stroke-width="2" points="108.331,-46.8265 108.202,-36.2325 101.696,-44.5943 108.331,-46.8265"/>
</g>
<!-- 3 -->
<g id="node4" class="node"><title>3</title>
<path fill="none" stroke="#b6d856" stroke-width="2" d="M199.87,-180C199.87,-180 144.13,-180 144.13,-180 138.13,-180 132.13,-174 132.13,-168 132.13,-168 132.13,-156 132.13,-156 132.13,-150 138.13,-144 144.13,-144 144.13,-144 199.87,-144 199.87,-144 205.87,-144 211.87,-150 211.87,-156 211.87,-156 211.87,-168 211.87,-168 211.87,-174 205.87,-180 199.87,-180"/>
<text text-anchor="middle" x="172" y="-159" font-family="sans" font-size="10.00">merge_counts</text>
</g>
<!-- 3&#45;&gt;1 -->
<g id="edge3" class="edge"><title>3&#45;&gt;1</title>
<path fill="none" stroke="grey" stroke-width="2" d="M168.045,-143.697C166.282,-135.983 164.163,-126.712 162.197,-118.112"/>
<polygon fill="grey" stroke="grey" stroke-width="2" points="165.55,-117.073 159.91,-108.104 158.726,-118.633 165.55,-117.073"/>
</g>
<!-- 4 -->
<g id="node5" class="node"><title>4</title>
<path fill="none" stroke="#56d892" stroke-width="2" d="M70.3655,-612C70.3655,-612 39.6345,-612 39.6345,-612 33.6345,-612 27.6345,-606 27.6345,-600 27.6345,-600 27.6345,-588 27.6345,-588 27.6345,-582 33.6345,-576 39.6345,-576 39.6345,-576 70.3655,-576 70.3655,-576 76.3655,-576 82.3655,-582 82.3655,-588 82.3655,-588 82.3655,-600 82.3655,-600 82.3655,-606 76.3655,-612 70.3655,-612"/>
<text text-anchor="middle" x="55" y="-591" font-family="sans" font-size="10.00">cutadapt</text>
</g>
<!-- 4&#45;&gt;2 -->
<g id="edge6" class="edge"><title>4&#45;&gt;2</title>
<path fill="none" stroke="grey" stroke-width="2" d="M43.604,-575.899C27.4941,-550.023 0,-498.852 0,-451 0,-451 0,-451 0,-377 0,-335.145 16.9865,-289.096 29.3541,-261.114"/>
<polygon fill="grey" stroke="grey" stroke-width="2" points="32.5423,-262.558 33.5007,-252.007 26.1715,-259.658 32.5423,-262.558"/>
</g>
<!-- 5 -->
<g id="node6" class="node"><title>5</title>
<path fill="none" stroke="#56d8b9" stroke-width="2" d="M70,-468C70,-468 40,-468 40,-468 34,-468 28,-462 28,-456 28,-456 28,-444 28,-444 28,-438 34,-432 40,-432 40,-432 70,-432 70,-432 76,-432 82,-438 82,-444 82,-444 82,-456 82,-456 82,-462 76,-468 70,-468"/>
<text text-anchor="middle" x="55" y="-447" font-family="sans" font-size="10.00">fastqc</text>
</g>
<!-- 4&#45;&gt;5 -->
<g id="edge9" class="edge"><title>4&#45;&gt;5</title>
<path fill="none" stroke="grey" stroke-width="2" d="M55,-575.871C55,-551.67 55,-507.211 55,-478.393"/>
<polygon fill="grey" stroke="grey" stroke-width="2" points="58.5001,-478.189 55,-468.189 51.5001,-478.189 58.5001,-478.189"/>
</g>
<!-- 12 -->
<g id="node13" class="node"><title>12</title>
<path fill="none" stroke="#d85656" stroke-width="2" d="M146,-540C146,-540 116,-540 116,-540 110,-540 104,-534 104,-528 104,-528 104,-516 104,-516 104,-510 110,-504 116,-504 116,-504 146,-504 146,-504 152,-504 158,-510 158,-516 158,-516 158,-528 158,-528 158,-534 152,-540 146,-540"/>
<text text-anchor="middle" x="131" y="-519" font-family="sans" font-size="10.00">star</text>
</g>
<!-- 4&#45;&gt;12 -->
<g id="edge16" class="edge"><title>4&#45;&gt;12</title>
<path fill="none" stroke="grey" stroke-width="2" d="M73.7865,-575.697C83.174,-567.05 94.6844,-556.449 104.913,-547.027"/>
<polygon fill="grey" stroke="grey" stroke-width="2" points="107.445,-549.454 112.43,-540.104 102.703,-544.305 107.445,-549.454"/>
</g>
<!-- 5&#45;&gt;2 -->
<g id="edge5" class="edge"><title>5&#45;&gt;2</title>
<path fill="none" stroke="grey" stroke-width="2" d="M53.9581,-431.849C51.7094,-394.832 46.3848,-307.181 43.6637,-262.386"/>
<polygon fill="grey" stroke="grey" stroke-width="2" points="47.1468,-262.002 43.0468,-252.232 40.1597,-262.426 47.1468,-262.002"/>
</g>
<!-- 6 -->
<g id="node7" class="node"><title>6</title>
<path fill="none" stroke="#567bd8" stroke-width="2" d="M136.195,-324C136.195,-324 77.8051,-324 77.8051,-324 71.8051,-324 65.8051,-318 65.8051,-312 65.8051,-312 65.8051,-300 65.8051,-300 65.8051,-294 71.8051,-288 77.8051,-288 77.8051,-288 136.195,-288 136.195,-288 142.195,-288 148.195,-294 148.195,-300 148.195,-300 148.195,-312 148.195,-312 148.195,-318 142.195,-324 136.195,-324"/>
<text text-anchor="middle" x="107" y="-303" font-family="sans" font-size="10.00">samtools_stats</text>
</g>
<!-- 6&#45;&gt;2 -->
<g id="edge4" class="edge"><title>6&#45;&gt;2</title>
<path fill="none" stroke="grey" stroke-width="2" d="M90.9326,-287.697C83.0612,-279.22 73.4447,-268.864 64.8267,-259.583"/>
<polygon fill="grey" stroke="grey" stroke-width="2" points="67.2519,-257.051 57.8826,-252.104 62.1224,-261.814 67.2519,-257.051"/>
</g>
<!-- 7 -->
<g id="node8" class="node"><title>7</title>
<path fill="none" stroke="#d8cb56" stroke-width="2" d="M205.157,-252C205.157,-252 146.843,-252 146.843,-252 140.843,-252 134.843,-246 134.843,-240 134.843,-240 134.843,-228 134.843,-228 134.843,-222 140.843,-216 146.843,-216 146.843,-216 205.157,-216 205.157,-216 211.157,-216 217.157,-222 217.157,-228 217.157,-228 217.157,-240 217.157,-240 217.157,-246 211.157,-252 205.157,-252"/>
<text text-anchor="middle" x="176" y="-231" font-family="sans" font-size="10.00">feature_counts</text>
</g>
<!-- 7&#45;&gt;3 -->
<g id="edge7" class="edge"><title>7&#45;&gt;3</title>
<path fill="none" stroke="grey" stroke-width="2" d="M175.011,-215.697C174.57,-207.983 174.041,-198.712 173.549,-190.112"/>
<polygon fill="grey" stroke="grey" stroke-width="2" points="177.042,-189.888 172.977,-180.104 170.054,-190.288 177.042,-189.888"/>
</g>
<!-- 8 -->
<g id="node9" class="node"><title>8</title>
<path fill="none" stroke="#56a9d8" stroke-width="2" d="M75.3702,-684C75.3702,-684 34.6298,-684 34.6298,-684 28.6298,-684 22.6298,-678 22.6298,-672 22.6298,-672 22.6298,-660 22.6298,-660 22.6298,-654 28.6298,-648 34.6298,-648 34.6298,-648 75.3702,-648 75.3702,-648 81.3702,-648 87.3702,-654 87.3702,-660 87.3702,-660 87.3702,-672 87.3702,-672 87.3702,-678 81.3702,-684 75.3702,-684"/>
<text text-anchor="middle" x="55" y="-663" font-family="sans" font-size="10.00">copy_input</text>
</g>
<!-- 8&#45;&gt;4 -->
<g id="edge8" class="edge"><title>8&#45;&gt;4</title>
<path fill="none" stroke="grey" stroke-width="2" d="M55,-647.697C55,-639.983 55,-630.712 55,-622.112"/>
<polygon fill="grey" stroke="grey" stroke-width="2" points="58.5001,-622.104 55,-612.104 51.5001,-622.104 58.5001,-622.104"/>
</g>
<!-- 9 -->
<g id="node10" class="node"><title>9</title>
<path fill="none" stroke="#68d856" stroke-width="2" d="M200.921,-396C200.921,-396 135.079,-396 135.079,-396 129.079,-396 123.079,-390 123.079,-384 123.079,-384 123.079,-372 123.079,-372 123.079,-366 129.079,-360 135.079,-360 135.079,-360 200.921,-360 200.921,-360 206.921,-360 212.921,-366 212.921,-372 212.921,-372 212.921,-384 212.921,-384 212.921,-390 206.921,-396 200.921,-396"/>
<text text-anchor="middle" x="168" y="-375" font-family="sans" font-size="10.00">samtools_merge</text>
</g>
<!-- 9&#45;&gt;6 -->
<g id="edge10" class="edge"><title>9&#45;&gt;6</title>
<path fill="none" stroke="grey" stroke-width="2" d="M152.921,-359.697C145.608,-351.305 136.69,-341.07 128.665,-331.861"/>
<polygon fill="grey" stroke="grey" stroke-width="2" points="131.114,-329.344 121.905,-324.104 125.836,-333.943 131.114,-329.344"/>
</g>
<!-- 9&#45;&gt;7 -->
<g id="edge11" class="edge"><title>9&#45;&gt;7</title>
<path fill="none" stroke="grey" stroke-width="2" d="M168.965,-359.871C170.328,-335.67 172.833,-291.211 174.457,-262.393"/>
<polygon fill="grey" stroke="grey" stroke-width="2" points="177.963,-262.37 175.032,-252.189 170.975,-261.977 177.963,-262.37"/>
</g>
<!-- 10 -->
<g id="node11" class="node"><title>10</title>
<path fill="none" stroke="#56d86b" stroke-width="2" d="M277.984,-324C277.984,-324 216.016,-324 216.016,-324 210.016,-324 204.016,-318 204.016,-312 204.016,-312 204.016,-300 204.016,-300 204.016,-294 210.016,-288 216.016,-288 216.016,-288 277.984,-288 277.984,-288 283.984,-288 289.984,-294 289.984,-300 289.984,-300 289.984,-312 289.984,-312 289.984,-318 283.984,-324 277.984,-324"/>
<text text-anchor="middle" x="247" y="-303" font-family="sans" font-size="10.00">samtools_index</text>
</g>
<!-- 9&#45;&gt;10 -->
<g id="edge14" class="edge"><title>9&#45;&gt;10</title>
<path fill="none" stroke="grey" stroke-width="2" d="M187.528,-359.697C197.382,-350.965 209.486,-340.24 220.196,-330.75"/>
<polygon fill="grey" stroke="grey" stroke-width="2" points="222.533,-333.356 227.697,-324.104 217.891,-328.117 222.533,-333.356"/>
</g>
<!-- 10&#45;&gt;7 -->
<g id="edge12" class="edge"><title>10&#45;&gt;7</title>
<path fill="none" stroke="grey" stroke-width="2" d="M229.449,-287.697C220.766,-279.135 210.137,-268.656 200.652,-259.304"/>
<polygon fill="grey" stroke="grey" stroke-width="2" points="202.927,-256.633 193.349,-252.104 198.012,-261.617 202.927,-256.633"/>
</g>
<!-- 11 -->
<g id="node12" class="node"><title>11</title>
<path fill="none" stroke="#56d0d8" stroke-width="2" d="M183.7,-468C183.7,-468 120.3,-468 120.3,-468 114.3,-468 108.3,-462 108.3,-456 108.3,-456 108.3,-444 108.3,-444 108.3,-438 114.3,-432 120.3,-432 120.3,-432 183.7,-432 183.7,-432 189.7,-432 195.7,-438 195.7,-444 195.7,-444 195.7,-456 195.7,-456 195.7,-462 189.7,-468 183.7,-468"/>
<text text-anchor="middle" x="152" y="-447" font-family="sans" font-size="10.00">sambamba_sort</text>
</g>
<!-- 11&#45;&gt;9 -->
<g id="edge13" class="edge"><title>11&#45;&gt;9</title>
<path fill="none" stroke="grey" stroke-width="2" d="M155.955,-431.697C157.718,-423.983 159.837,-414.712 161.803,-406.112"/>
<polygon fill="grey" stroke="grey" stroke-width="2" points="165.274,-406.633 164.09,-396.104 158.45,-405.073 165.274,-406.633"/>
</g>
<!-- 12&#45;&gt;11 -->
<g id="edge15" class="edge"><title>12&#45;&gt;11</title>
<path fill="none" stroke="grey" stroke-width="2" d="M136.191,-503.697C138.531,-495.898 141.347,-486.509 143.951,-477.829"/>
<polygon fill="grey" stroke="grey" stroke-width="2" points="147.348,-478.688 146.869,-468.104 140.643,-476.677 147.348,-478.688"/>
</g>
</g>
</svg>
