<?xml version="1.0" encoding="UTF-8" standalone="no"?>
<!DOCTYPE svg PUBLIC "-//W3C//DTD SVG 1.1//EN"
 "http://www.w3.org/Graphics/SVG/1.1/DTD/svg11.dtd">
<!-- Generated by graphviz version 2.38.0 (20140413.2041)
 -->
<!-- Title: snakemake_dag Pages: 1 -->
<svg width="344pt" height="836pt"
 viewBox="0.00 0.00 343.74 836.00" xmlns="http://www.w3.org/2000/svg" xmlns:xlink="http://www.w3.org/1999/xlink">
<g id="graph0" class="graph" transform="scale(1 1) rotate(0) translate(4 832)">
<title>snakemake_dag</title>
<polygon fill="white" stroke="none" points="-4,4 -4,-832 339.741,-832 339.741,4 -4,4"/>
<!-- 0 -->
<g id="node1" class="node"><title>0</title>
<path fill="none" stroke="#d8b456" stroke-width="2" d="M171,-36C171,-36 141,-36 141,-36 135,-36 129,-30 129,-24 129,-24 129,-12 129,-12 129,-6 135,-0 141,-0 141,-0 171,-0 171,-0 177,-0 183,-6 183,-12 183,-12 183,-24 183,-24 183,-30 177,-36 171,-36"/>
<text text-anchor="middle" x="156" y="-15" font-family="sans" font-size="10.00">all</text>
</g>
<!-- 1 -->
<g id="node2" class="node"><title>1</title>
<path fill="none" stroke="#97d856" stroke-width="2" d="M233.375,-108C233.375,-108 162.625,-108 162.625,-108 156.625,-108 150.625,-102 150.625,-96 150.625,-96 150.625,-84 150.625,-84 150.625,-78 156.625,-72 162.625,-72 162.625,-72 233.375,-72 233.375,-72 239.375,-72 245.375,-78 245.375,-84 245.375,-84 245.375,-96 245.375,-96 245.375,-102 239.375,-108 233.375,-108"/>
<text text-anchor="middle" x="198" y="-87" font-family="sans" font-size="10.00">normalize_counts</text>
</g>
<!-- 1&#45;&gt;0 -->
<g id="edge1" class="edge"><title>1&#45;&gt;0</title>
<path fill="none" stroke="grey" stroke-width="2" d="M187.618,-71.6966C182.735,-63.5589 176.813,-53.689 171.421,-44.7013"/>
<polygon fill="grey" stroke="grey" stroke-width="2" points="174.409,-42.8785 166.263,-36.1043 168.406,-46.48 174.409,-42.8785"/>
</g>
<!-- 2 -->
<g id="node3" class="node"><title>2</title>
<path fill="none" stroke="#56d89a" stroke-width="2" d="M99,-252C99,-252 69,-252 69,-252 63,-252 57,-246 57,-240 57,-240 57,-228 57,-228 57,-222 63,-216 69,-216 69,-216 99,-216 99,-216 105,-216 111,-222 111,-228 111,-228 111,-240 111,-240 111,-246 105,-252 99,-252"/>
<text text-anchor="middle" x="84" y="-231" font-family="sans" font-size="10.00">multiqc</text>
</g>
<!-- 2&#45;&gt;0 -->
<g id="edge2" class="edge"><title>2&#45;&gt;0</title>
<path fill="none" stroke="grey" stroke-width="2" d="M89.7704,-215.849C102.278,-178.675 131.965,-90.4388 146.976,-45.8204"/>
<polygon fill="grey" stroke="grey" stroke-width="2" points="150.331,-46.8265 150.202,-36.2325 143.696,-44.5943 150.331,-46.8265"/>
</g>
<!-- 3 -->
<g id="node4" class="node"><title>3</title>
<path fill="none" stroke="#56d87b" stroke-width="2" d="M241.87,-180C241.87,-180 186.13,-180 186.13,-180 180.13,-180 174.13,-174 174.13,-168 174.13,-168 174.13,-156 174.13,-156 174.13,-150 180.13,-144 186.13,-144 186.13,-144 241.87,-144 241.87,-144 247.87,-144 253.87,-150 253.87,-156 253.87,-156 253.87,-168 253.87,-168 253.87,-174 247.87,-180 241.87,-180"/>
<text text-anchor="middle" x="214" y="-159" font-family="sans" font-size="10.00">merge_counts</text>
</g>
<!-- 3&#45;&gt;1 -->
<g id="edge3" class="edge"><title>3&#45;&gt;1</title>
<path fill="none" stroke="grey" stroke-width="2" d="M210.045,-143.697C208.282,-135.983 206.163,-126.712 204.197,-118.112"/>
<polygon fill="grey" stroke="grey" stroke-width="2" points="207.55,-117.073 201.91,-108.104 200.726,-118.633 207.55,-117.073"/>
</g>
<!-- 4 -->
<g id="node5" class="node"><title>4</title>
<path fill="none" stroke="#59d856" stroke-width="2" d="M70,-612C70,-612 40,-612 40,-612 34,-612 28,-606 28,-600 28,-600 28,-588 28,-588 28,-582 34,-576 40,-576 40,-576 70,-576 70,-576 76,-576 82,-582 82,-588 82,-588 82,-600 82,-600 82,-606 76,-612 70,-612"/>
<text text-anchor="middle" x="55" y="-591" font-family="sans" font-size="10.00">fastqc</text>
</g>
<!-- 4&#45;&gt;2 -->
<g id="edge5" class="edge"><title>4&#45;&gt;2</title>
<path fill="none" stroke="grey" stroke-width="2" d="M53.2219,-575.973C50.599,-549.343 46,-496.205 46,-451 46,-451 46,-451 46,-377 46,-335.633 61.2348,-289.722 72.4117,-261.605"/>
<polygon fill="grey" stroke="grey" stroke-width="2" points="75.7564,-262.673 76.3101,-252.093 69.2793,-260.019 75.7564,-262.673"/>
</g>
<!-- 5 -->
<g id="node6" class="node"><title>5</title>
<path fill="none" stroke="#78d856" stroke-width="2" d="M89.3655,-756C89.3655,-756 58.6345,-756 58.6345,-756 52.6345,-756 46.6345,-750 46.6345,-744 46.6345,-744 46.6345,-732 46.6345,-732 46.6345,-726 52.6345,-720 58.6345,-720 58.6345,-720 89.3655,-720 89.3655,-720 95.3655,-720 101.365,-726 101.365,-732 101.365,-732 101.365,-744 101.365,-744 101.365,-750 95.3655,-756 89.3655,-756"/>
<text text-anchor="middle" x="74" y="-735" font-family="sans" font-size="10.00">cutadapt</text>
</g>
<!-- 5&#45;&gt;2 -->
<g id="edge4" class="edge"><title>5&#45;&gt;2</title>
<path fill="none" stroke="grey" stroke-width="2" d="M57.9431,-719.694C36.1791,-694.359 0,-644.761 0,-595 0,-595 0,-595 0,-377 0,-330.596 33.6412,-286.055 58.3444,-259.604"/>
<polygon fill="grey" stroke="grey" stroke-width="2" points="60.9462,-261.948 65.3577,-252.315 55.902,-257.094 60.9462,-261.948"/>
</g>
<!-- 5&#45;&gt;4 -->
<g id="edge9" class="edge"><title>5&#45;&gt;4</title>
<path fill="none" stroke="grey" stroke-width="2" d="M70.8363,-719.852C68.9881,-709.494 66.6937,-696.014 65,-684 62.0882,-663.345 59.482,-639.896 57.6607,-622.255"/>
<polygon fill="grey" stroke="grey" stroke-width="2" points="61.122,-621.695 56.6325,-612.098 54.1576,-622.4 61.122,-621.695"/>
</g>
<!-- 14 -->
<g id="node15" class="node"><title>14</title>
<path fill="none" stroke="#56b9d8" stroke-width="2" d="M120.242,-684C120.242,-684 85.7583,-684 85.7583,-684 79.7583,-684 73.7583,-678 73.7583,-672 73.7583,-672 73.7583,-660 73.7583,-660 73.7583,-654 79.7583,-648 85.7583,-648 85.7583,-648 120.242,-648 120.242,-648 126.242,-648 132.242,-654 132.242,-660 132.242,-660 132.242,-672 132.242,-672 132.242,-678 126.242,-684 120.242,-684"/>
<text text-anchor="middle" x="103" y="-663" font-family="sans" font-size="10.00">star_graft</text>
</g>
<!-- 5&#45;&gt;14 -->
<g id="edge20" class="edge"><title>5&#45;&gt;14</title>
<path fill="none" stroke="grey" stroke-width="2" d="M81.1685,-719.697C84.4345,-711.813 88.374,-702.304 92.0022,-693.546"/>
<polygon fill="grey" stroke="grey" stroke-width="2" points="95.32,-694.683 95.9139,-684.104 88.853,-692.003 95.32,-694.683"/>
</g>
<!-- 15 -->
<g id="node16" class="node"><title>15</title>
<path fill="none" stroke="#d6d856" stroke-width="2" d="M195.633,-684C195.633,-684 162.367,-684 162.367,-684 156.367,-684 150.367,-678 150.367,-672 150.367,-672 150.367,-660 150.367,-660 150.367,-654 156.367,-648 162.367,-648 162.367,-648 195.633,-648 195.633,-648 201.633,-648 207.633,-654 207.633,-660 207.633,-660 207.633,-672 207.633,-672 207.633,-678 201.633,-684 195.633,-684"/>
<text text-anchor="middle" x="179" y="-663" font-family="sans" font-size="10.00">star_host</text>
</g>
<!-- 5&#45;&gt;15 -->
<g id="edge21" class="edge"><title>5&#45;&gt;15</title>
<path fill="none" stroke="grey" stroke-width="2" d="M99.6859,-719.876C113.288,-710.808 130.172,-699.552 144.861,-689.759"/>
<polygon fill="grey" stroke="grey" stroke-width="2" points="146.836,-692.649 153.215,-684.19 142.953,-686.825 146.836,-692.649"/>
</g>
<!-- 6 -->
<g id="node7" class="node"><title>6</title>
<path fill="none" stroke="#d89556" stroke-width="2" d="M182.195,-324C182.195,-324 123.805,-324 123.805,-324 117.805,-324 111.805,-318 111.805,-312 111.805,-312 111.805,-300 111.805,-300 111.805,-294 117.805,-288 123.805,-288 123.805,-288 182.195,-288 182.195,-288 188.195,-288 194.195,-294 194.195,-300 194.195,-300 194.195,-312 194.195,-312 194.195,-318 188.195,-324 182.195,-324"/>
<text text-anchor="middle" x="153" y="-303" font-family="sans" font-size="10.00">samtools_stats</text>
</g>
<!-- 6&#45;&gt;2 -->
<g id="edge7" class="edge"><title>6&#45;&gt;2</title>
<path fill="none" stroke="grey" stroke-width="2" d="M135.944,-287.697C127.505,-279.135 117.175,-268.656 107.957,-259.304"/>
<polygon fill="grey" stroke="grey" stroke-width="2" points="110.373,-256.769 100.86,-252.104 105.387,-261.683 110.373,-256.769"/>
</g>
<!-- 7 -->
<g id="node8" class="node"><title>7</title>
<path fill="none" stroke="#567bd8" stroke-width="2" d="M191.984,-468C191.984,-468 140.016,-468 140.016,-468 134.016,-468 128.016,-462 128.016,-456 128.016,-456 128.016,-444 128.016,-444 128.016,-438 134.016,-432 140.016,-432 140.016,-432 191.984,-432 191.984,-432 197.984,-432 203.984,-438 203.984,-444 203.984,-444 203.984,-456 203.984,-456 203.984,-462 197.984,-468 191.984,-468"/>
<text text-anchor="middle" x="166" y="-447" font-family="sans" font-size="10.00">disambiguate</text>
</g>
<!-- 7&#45;&gt;2 -->
<g id="edge6" class="edge"><title>7&#45;&gt;2</title>
<path fill="none" stroke="grey" stroke-width="2" d="M151.633,-431.678C143.872,-421.703 134.564,-408.666 128,-396 105.361,-352.314 93.3965,-295.747 87.906,-262.608"/>
<polygon fill="grey" stroke="grey" stroke-width="2" points="91.2989,-261.654 86.2861,-252.32 84.3841,-262.742 91.2989,-261.654"/>
</g>
<!-- 10 -->
<g id="node11" class="node"><title>10</title>
<path fill="none" stroke="#569ad8" stroke-width="2" d="M243.276,-396C243.276,-396 148.724,-396 148.724,-396 142.724,-396 136.724,-390 136.724,-384 136.724,-384 136.724,-372 136.724,-372 136.724,-366 142.724,-360 148.724,-360 148.724,-360 243.276,-360 243.276,-360 249.276,-360 255.276,-366 255.276,-372 255.276,-372 255.276,-384 255.276,-384 255.276,-390 249.276,-396 243.276,-396"/>
<text text-anchor="middle" x="196" y="-375" font-family="sans" font-size="10.00">sambamba_sort_coord</text>
</g>
<!-- 7&#45;&gt;10 -->
<g id="edge15" class="edge"><title>7&#45;&gt;10</title>
<path fill="none" stroke="grey" stroke-width="2" d="M173.416,-431.697C176.794,-423.813 180.87,-414.304 184.623,-405.546"/>
<polygon fill="grey" stroke="grey" stroke-width="2" points="187.947,-406.675 188.67,-396.104 181.513,-403.917 187.947,-406.675"/>
</g>
<!-- 8 -->
<g id="node9" class="node"><title>8</title>
<path fill="none" stroke="#d87556" stroke-width="2" d="M251.157,-252C251.157,-252 192.843,-252 192.843,-252 186.843,-252 180.843,-246 180.843,-240 180.843,-240 180.843,-228 180.843,-228 180.843,-222 186.843,-216 192.843,-216 192.843,-216 251.157,-216 251.157,-216 257.157,-216 263.157,-222 263.157,-228 263.157,-228 263.157,-240 263.157,-240 263.157,-246 257.157,-252 251.157,-252"/>
<text text-anchor="middle" x="222" y="-231" font-family="sans" font-size="10.00">feature_counts</text>
</g>
<!-- 8&#45;&gt;3 -->
<g id="edge8" class="edge"><title>8&#45;&gt;3</title>
<path fill="none" stroke="grey" stroke-width="2" d="M220.022,-215.697C219.141,-207.983 218.081,-198.712 217.099,-190.112"/>
<polygon fill="grey" stroke="grey" stroke-width="2" points="220.568,-189.642 215.955,-180.104 213.613,-190.437 220.568,-189.642"/>
</g>
<!-- 9 -->
<g id="node10" class="node"><title>9</title>
<path fill="none" stroke="#56d8d8" stroke-width="2" d="M94.3702,-828C94.3702,-828 53.6298,-828 53.6298,-828 47.6298,-828 41.6298,-822 41.6298,-816 41.6298,-816 41.6298,-804 41.6298,-804 41.6298,-798 47.6298,-792 53.6298,-792 53.6298,-792 94.3702,-792 94.3702,-792 100.37,-792 106.37,-798 106.37,-804 106.37,-804 106.37,-816 106.37,-816 106.37,-822 100.37,-828 94.3702,-828"/>
<text text-anchor="middle" x="74" y="-807" font-family="sans" font-size="10.00">copy_input</text>
</g>
<!-- 9&#45;&gt;5 -->
<g id="edge10" class="edge"><title>9&#45;&gt;5</title>
<path fill="none" stroke="grey" stroke-width="2" d="M74,-791.697C74,-783.983 74,-774.712 74,-766.112"/>
<polygon fill="grey" stroke="grey" stroke-width="2" points="77.5001,-766.104 74,-756.104 70.5001,-766.104 77.5001,-766.104"/>
</g>
<!-- 10&#45;&gt;6 -->
<g id="edge11" class="edge"><title>10&#45;&gt;6</title>
<path fill="none" stroke="grey" stroke-width="2" d="M185.371,-359.697C180.372,-351.559 174.309,-341.689 168.788,-332.701"/>
<polygon fill="grey" stroke="grey" stroke-width="2" points="171.723,-330.793 163.507,-324.104 165.759,-334.457 171.723,-330.793"/>
</g>
<!-- 10&#45;&gt;8 -->
<g id="edge13" class="edge"><title>10&#45;&gt;8</title>
<path fill="none" stroke="grey" stroke-width="2" d="M199.136,-359.871C203.567,-335.67 211.708,-291.211 216.984,-262.393"/>
<polygon fill="grey" stroke="grey" stroke-width="2" points="220.494,-262.656 218.853,-252.189 213.609,-261.395 220.494,-262.656"/>
</g>
<!-- 12 -->
<g id="node13" class="node"><title>12</title>
<path fill="none" stroke="#b6d856" stroke-width="2" d="M323.984,-324C323.984,-324 262.016,-324 262.016,-324 256.016,-324 250.016,-318 250.016,-312 250.016,-312 250.016,-300 250.016,-300 250.016,-294 256.016,-288 262.016,-288 262.016,-288 323.984,-288 323.984,-288 329.984,-288 335.984,-294 335.984,-300 335.984,-300 335.984,-312 335.984,-312 335.984,-318 329.984,-324 323.984,-324"/>
<text text-anchor="middle" x="293" y="-303" font-family="sans" font-size="10.00">samtools_index</text>
</g>
<!-- 10&#45;&gt;12 -->
<g id="edge17" class="edge"><title>10&#45;&gt;12</title>
<path fill="none" stroke="grey" stroke-width="2" d="M219.978,-359.697C232.311,-350.796 247.516,-339.823 260.853,-330.199"/>
<polygon fill="grey" stroke="grey" stroke-width="2" points="263.237,-332.794 269.298,-324.104 259.141,-327.118 263.237,-332.794"/>
</g>
<!-- 11 -->
<g id="node12" class="node"><title>11</title>
<path fill="none" stroke="#56d8b9" stroke-width="2" d="M198.921,-540C198.921,-540 133.079,-540 133.079,-540 127.079,-540 121.079,-534 121.079,-528 121.079,-528 121.079,-516 121.079,-516 121.079,-510 127.079,-504 133.079,-504 133.079,-504 198.921,-504 198.921,-504 204.921,-504 210.921,-510 210.921,-516 210.921,-516 210.921,-528 210.921,-528 210.921,-534 204.921,-540 198.921,-540"/>
<text text-anchor="middle" x="166" y="-519" font-family="sans" font-size="10.00">samtools_merge</text>
</g>
<!-- 11&#45;&gt;7 -->
<g id="edge12" class="edge"><title>11&#45;&gt;7</title>
<path fill="none" stroke="grey" stroke-width="2" d="M166,-503.697C166,-495.983 166,-486.712 166,-478.112"/>
<polygon fill="grey" stroke="grey" stroke-width="2" points="169.5,-478.104 166,-468.104 162.5,-478.104 169.5,-478.104"/>
</g>
<!-- 12&#45;&gt;8 -->
<g id="edge14" class="edge"><title>12&#45;&gt;8</title>
<path fill="none" stroke="grey" stroke-width="2" d="M275.449,-287.697C266.766,-279.135 256.137,-268.656 246.652,-259.304"/>
<polygon fill="grey" stroke="grey" stroke-width="2" points="248.927,-256.633 239.349,-252.104 244.012,-261.617 248.927,-256.633"/>
</g>
<!-- 13 -->
<g id="node14" class="node"><title>13</title>
<path fill="none" stroke="#d85656" stroke-width="2" d="M215.837,-612C215.837,-612 116.163,-612 116.163,-612 110.163,-612 104.163,-606 104.163,-600 104.163,-600 104.163,-588 104.163,-588 104.163,-582 110.163,-576 116.163,-576 116.163,-576 215.837,-576 215.837,-576 221.837,-576 227.837,-582 227.837,-588 227.837,-588 227.837,-600 227.837,-600 227.837,-606 221.837,-612 215.837,-612"/>
<text text-anchor="middle" x="166" y="-591" font-family="sans" font-size="10.00">sambamba_sort_qname</text>
</g>
<!-- 13&#45;&gt;11 -->
<g id="edge16" class="edge"><title>13&#45;&gt;11</title>
<path fill="none" stroke="grey" stroke-width="2" d="M166,-575.697C166,-567.983 166,-558.712 166,-550.112"/>
<polygon fill="grey" stroke="grey" stroke-width="2" points="169.5,-550.104 166,-540.104 162.5,-550.104 169.5,-550.104"/>
</g>
<!-- 14&#45;&gt;13 -->
<g id="edge18" class="edge"><title>14&#45;&gt;13</title>
<path fill="none" stroke="grey" stroke-width="2" d="M118.573,-647.697C126.202,-639.22 135.523,-628.864 143.876,-619.583"/>
<polygon fill="grey" stroke="grey" stroke-width="2" points="146.518,-621.879 150.606,-612.104 141.315,-617.196 146.518,-621.879"/>
</g>
<!-- 15&#45;&gt;13 -->
<g id="edge19" class="edge"><title>15&#45;&gt;13</title>
<path fill="none" stroke="grey" stroke-width="2" d="M175.787,-647.697C174.354,-639.983 172.632,-630.712 171.035,-622.112"/>
<polygon fill="grey" stroke="grey" stroke-width="2" points="174.444,-621.297 169.177,-612.104 167.561,-622.575 174.444,-621.297"/>
</g>
</g>
</svg>
